<?xml version="1.0" encoding="UTF-8" standalone="no"?>
<!DOCTYPE svg PUBLIC "-//W3C//DTD SVG 1.1//EN" "http://www.w3.org/Graphics/SVG/1.1/DTD/svg11.dtd">
<svg width="100%" height="100%" viewBox="0 0 24 24" version="1.1" xmlns="http://www.w3.org/2000/svg" xmlns:xlink="http://www.w3.org/1999/xlink" xml:space="preserve" xmlns:serif="http://www.serif.com/" style="fill-rule:evenodd;clip-rule:evenodd;stroke-linecap:round;stroke-linejoin:round;">
    <rect x="0" y="0" width="24" height="24" style="fill:none;fill-rule:nonzero;"/>
    <path d="M4.84,8C4.84,8.464 4.464,8.84 4,8.84C3.536,8.84 3.16,8.464 3.16,8L3.16,6C3.16,4.442 4.442,3.16 6,3.16L8,3.16C8.464,3.16 8.84,3.536 8.84,4C8.84,4.464 8.464,4.84 8,4.84L6,4.84C5.364,4.84 4.84,5.364 4.84,6L4.84,8Z" style="fill:white;fill-rule:nonzero;stroke:black;stroke-width:0.77px;"/>
    <path d="M3.16,16C3.16,15.536 3.536,15.16 4,15.16C4.464,15.16 4.84,15.536 4.84,16L4.84,18C4.84,18.636 5.364,19.16 6,19.16L8,19.16C8.464,19.16 8.84,19.536 8.84,20C8.84,20.464 8.464,20.84 8,20.84L6,20.84C4.442,20.84 3.16,19.558 3.16,18L3.16,16Z" style="fill:white;fill-rule:nonzero;stroke:black;stroke-width:0.77px;"/>
    <path d="M16,4.84C15.536,4.84 15.16,4.464 15.16,4C15.16,3.536 15.536,3.16 16,3.16L18,3.16C19.558,3.16 20.84,4.442 20.84,6L20.84,8C20.84,8.464 20.464,8.84 20,8.84C19.536,8.84 19.16,8.464 19.16,8L19.16,6C19.16,5.364 18.636,4.84 18,4.84L16,4.84Z" style="fill:white;fill-rule:nonzero;stroke:black;stroke-width:0.77px;"/>
    <path d="M16,20.84C15.536,20.84 15.16,20.464 15.16,20C15.16,19.536 15.536,19.16 16,19.16L18,19.16C18.636,19.16 19.16,18.636 19.16,18L19.16,16C19.16,15.536 19.536,15.16 20,15.16C20.464,15.16 20.84,15.536 20.84,16L20.84,18C20.84,19.558 19.558,20.84 18,20.84L16,20.84Z" style="fill:white;fill-rule:nonzero;stroke:black;stroke-width:0.77px;"/>
    <path d="M10.333,13.667C9.859,13.192 8.5,13.292 8.5,13.292C8.143,13.292 7.854,13.003 7.854,12.646L7.854,11.354C7.854,10.997 8.143,10.708 8.5,10.708C8.5,10.708 9.859,10.808 10.333,10.333C10.808,9.859 10.708,8.5 10.708,8.5C10.708,8.143 10.997,7.854 11.354,7.854L12.646,7.854C13.003,7.854 13.292,8.143 13.292,8.5C13.292,8.5 13.192,9.859 13.667,10.333C14.141,10.808 15.5,10.708 15.5,10.708C15.857,10.708 16.146,10.997 16.146,11.354L16.146,12.646C16.146,13.003 15.857,13.292 15.5,13.292C15.5,13.292 14.141,13.192 13.667,13.667C13.192,14.141 13.292,15.5 13.292,15.5C13.292,15.857 13.003,16.146 12.646,16.146L11.354,16.146C10.997,16.146 10.708,15.857 10.708,15.5C10.708,15.5 10.808,14.141 10.333,13.667ZM12,10.708C11.287,10.708 10.708,11.287 10.708,12C10.708,12.713 11.287,13.292 12,13.292C12.713,13.292 13.292,12.713 13.292,12C13.292,11.287 12.713,10.708 12,10.708Z" style="fill:white;stroke:black;stroke-width:0.64px;"/>
</svg>
