<?xml version="1.0" encoding="UTF-8" standalone="no"?>
<!DOCTYPE svg PUBLIC "-//W3C//DTD SVG 1.1//EN" "http://www.w3.org/Graphics/SVG/1.1/DTD/svg11.dtd">
<svg width="100%" height="100%" viewBox="0 0 24 24" version="1.1" xmlns="http://www.w3.org/2000/svg" xmlns:xlink="http://www.w3.org/1999/xlink" xml:space="preserve" xmlns:serif="http://www.serif.com/" style="fill-rule:evenodd;clip-rule:evenodd;stroke-linecap:round;stroke-linejoin:round;">
    <path d="M12.937,6C12.937,6.517 12.517,6.937 12,6.937C11.483,6.937 11.063,6.517 11.063,6L11.063,3C11.063,2.483 11.483,2.063 12,2.063C12.517,2.063 12.937,2.483 12.937,3L12.937,6Z" style="fill:white;fill-rule:nonzero;stroke:black;stroke-width:0.95px;"/>
    <path d="M6,11.063C6.517,11.063 6.937,11.483 6.937,12C6.937,12.517 6.517,12.937 6,12.937L3,12.937C2.483,12.937 2.063,12.517 2.063,12C2.063,11.483 2.483,11.063 3,11.063L6,11.063Z" style="fill:white;fill-rule:nonzero;stroke:black;stroke-width:0.95px;"/>
    <path d="M8.412,7.088C8.778,7.453 8.778,8.047 8.412,8.412C8.047,8.778 7.453,8.778 7.088,8.412L4.938,6.262C4.572,5.897 4.572,5.303 4.938,4.938C5.303,4.572 5.897,4.572 6.262,4.938L8.412,7.088Z" style="fill:white;fill-rule:nonzero;stroke:black;stroke-width:0.95px;"/>
</svg>
